# xmcd
#
# Track frame offsets:
#	150
#	13965
#	25357
#	44721
#	57661
#	87361
#	108449
#	127086
#	139550
#	162745
#	176737
#	188535
#	205028
#	224021
#	252033
#	266657
#	282114
#	302981
#
# Disc length: 4288 seconds
#
# Revision: 1
# Processed by: cddbd v1.5.1PL0 Copyright (c) Steve Scherf et al.
# Submitted via: audiograbber 1.83.01
#
DISCID=1a10be12
DTITLE=Various Artist - World Of Tarantino
DYEAR=2000
DGENRE=Tarantino
TTITLE0=FUN LOVIN - Scooby Snacks
TTITLE1=ORANJ SYMPHONETTE - A Shot In The Dark
TTITLE2=BUENA VISTA SOCIAL CLUB feat. RY COODER - Chan-Chan
TTITLE3=THE HEINZ KIESSLING ORCHESTRA - Falena
TTITLE4=AVERAGE WHITE BAND - Feel So Fret
TTITLE5=RARE PLEASURE - Let Me Down Easy
TTITLE6=JAMES TAYLOR QUARTET - Mrs. Robinson
TTITLE7=RED ELVISES - Red Lips Red Eyes Red Stockings
TTITLE8=CHERYL LYNN - Got To Be Real
TTITLE9=QUINCI JONES and HIS ORCHESTRA - Soul Bossa Nova (DIM'S SPACE-A-NOVA MIX)
TTITLE10=LOS AMIGOS INVISIBLES - Cha-Chaborro
TTITLE11=BRAIN SETZER ORCHESTRA - Ghost Radio
TTITLE12=CHICAGO - Street Player
TTITLE13=PATTI JO - Make Me Believe In You
TTITLE14=FAMILY TREE - Family Tree
TTITLE15=TOWER OF POWER - Just Enought And Too Much
TTITLE16=HERB ALPERT - Red Hot
TTITLE17=BILL WITHERS - Lovely Day
EXTD=
EXTT0=
EXTT1=
EXTT2=
EXTT3=
EXTT4=
EXTT5=
EXTT6=
EXTT7=
EXTT8=
EXTT9=
EXTT10=
EXTT11=
EXTT12=
EXTT13=
EXTT14=
EXTT15=
EXTT16=
EXTT17=
PLAYORDER=
